<?xml version="1.0" encoding="UTF-8"?>
<svg width="33px" height="33px" viewBox="0 0 33 33" version="1.1" xmlns="http://www.w3.org/2000/svg" xmlns:xlink="http://www.w3.org/1999/xlink">
    <!-- Generator: Sketch 43.1 (39012) - http://www.bohemiancoding.com/sketch -->
    <title>Shape</title>
    <desc>Created with Sketch.</desc>
    <defs></defs>
    <g id="Page-1" stroke="none" stroke-width="1" fill="none" fill-rule="evenodd">
        <g id="iks" transform="translate(16.500000, 15.500000) rotate(45.000000) translate(-16.500000, -15.500000) translate(4.000000, 3.000000)" fill-rule="nonzero" fill="#FFFFFF">
            <path d="M15.73,12.9 L24.21,4.41 C24.7560151,3.91347066 24.9842108,3.15659575 24.8036468,2.44100474 C24.6230827,1.72541373 24.0631072,1.16741697 23.3468815,0.989387082 C22.6306558,0.811357192 21.8745934,1.0422307 21.38,1.59 L12.9,10.07 L4.41,1.59 C3.62992509,0.814552811 2.37007491,0.814552811 1.59,1.59 C0.814552811,2.37007491 0.814552811,3.62992509 1.59,4.41 L10.07,12.9 L1.59,21.38 C1.0422307,21.8745934 0.811357192,22.6306558 0.989387082,23.3468815 C1.16741697,24.0631072 1.72541373,24.6230827 2.44100474,24.8036468 C3.15659575,24.9842108 3.91347066,24.7560151 4.41,24.21 L12.9,15.73 L21.38,24.21 C22.1614829,24.9914829 23.4285171,24.9914829 24.21,24.21 C24.9914829,23.4285171 24.9914829,22.1614829 24.21,21.38 L15.73,12.9 Z" id="Shape"></path>
        </g>
    </g>
</svg>